# xmcd
#
# Track frame offsets:
#	151
#	21589
#	48683
#	80048
#	108878
#	132348
#	154951
#	175921
#
# Disc length: 2617 seconds
#
# Revision: 0
# Processed by: cddbd v1.5.1PL2 Copyright (c) Steve Scherf et al.
# Submitted via: EasyCDDAExtractor 8.2.3.1
#
DISCID=6d0a3708
DTITLE=Blues Traveler - MDC Hatch Shell - Boston, MA 04-28-01
DYEAR=2001
DGENRE=Blues
TTITLE0=Save His Soul
TTITLE1=Carolina Blues
TTITLE2=You Reach Me
TTITLE3=All Hands ->
TTITLE4=Run Around
TTITLE5=Girl Inside My Head
TTITLE6=Just For Me
TTITLE7=100 Years
EXTD=
EXTT0=
EXTT1=
EXTT2=
EXTT3=
EXTT4=
EXTT5=
EXTT6=
EXTT7=
PLAYORDER=
